<svg xmlns="http://www.w3.org/2000/svg" xmlns:xlink="http://www.w3.org/1999/xlink" viewBox="0 0 377.56 529.91"><defs><style>.a,.b,.c,.d,.e,.f,.g,.h,.i,.j,.k{stroke:#d66bda;stroke-miterlimit:10;}.a{fill:url(#a);}.b{fill:url(#b);}.c{fill:url(#c);}.d{fill:url(#d);}.e{fill:url(#e);}.f{fill:url(#f);}.g{fill:url(#g);}.h{fill:url(#h);}.i{fill:url(#i);}.j{fill:url(#j);}.k{fill:url(#k);}</style><linearGradient id="a" x1="3056.96" y1="2963.76" x2="3056.96" y2="2963.76" gradientUnits="userSpaceOnUse"><stop offset="0.2" stop-color="#fff"/><stop offset="0.61" stop-color="#e096f7"/></linearGradient><linearGradient id="b" x1="2995.92" y1="2932.54" x2="2995.92" y2="2932.54" xlink:href="#a"/><linearGradient id="c" x1="3062.16" y1="2966.42" x2="3062.16" y2="2966.42" xlink:href="#a"/><linearGradient id="d" x1="2959" y1="2913.66" x2="2959" y2="2913.66" xlink:href="#a"/><linearGradient id="e" x1="2771.13" y1="2654.23" x2="3285.56" y2="3168.66" xlink:href="#a"/><linearGradient id="f" x1="2812.82" y1="2612.55" x2="3327.25" y2="3126.98" xlink:href="#a"/><linearGradient id="g" x1="-115.22" y1="-9.59" x2="399.21" y2="504.84" xlink:href="#a"/><linearGradient id="h" x1="2668.81" y1="2756.55" x2="3183.24" y2="3270.98" xlink:href="#a"/><linearGradient id="i" x1="2655.22" y1="2770.15" x2="3169.65" y2="3284.58" xlink:href="#a"/><linearGradient id="j" x1="2626.35" y1="2799.01" x2="3140.78" y2="3313.44" xlink:href="#a"/><linearGradient id="k" x1="2751.79" y1="2673.57" x2="3266.22" y2="3188" xlink:href="#a"/></defs><path class="a" d="M3057,2963.76" transform="translate(-2814.08 -2736.09)"/><path class="b" d="M2995.92,2932.54" transform="translate(-2814.08 -2736.09)"/><path class="c" d="M3062.16,2966.42" transform="translate(-2814.08 -2736.09)"/><path class="d" d="M2959,2913.66" transform="translate(-2814.08 -2736.09)"/><path class="e" d="M3021.9,2860.3h-45.85a16.32,16.32,0,1,0,0,10h41.72l25.44,25.44h14.14Zm-61.37,11.3a6.3,6.3,0,1,1,6.3-6.3A6.31,6.31,0,0,1,2960.53,2871.6Z" transform="translate(-2814.08 -2736.09)"/><path class="f" d="M3190.5,3057.28l-11.52-.2c-9.08-.15-26.86-4.31-43.85-30.44-9.09-14-12.5-28.88-9.59-42,5-22.35,6.39-43.58,4.24-63.1a140.1,140.1,0,0,0-23.43-64.42c-21.43-31.38-52-48.5-73.82-57.34-27.56-11.14-62.48-11.85-95.79-1.93a166.21,166.21,0,0,0-36.78,15.9l-3,1.76-47.57-38.59,5-3.87c20-15.59,62.17-34.46,114.88-36.33,41-1.46,100.86,7.39,153.37,57.87,26.56,25.54,44.64,57.42,52.27,92.2,7.53,34.32,5,71.76-7.35,108.29-1.19,3.51-2.74,14.36,0,25.48a66.28,66.28,0,0,0,15.19,28.15Zm-206.81-276.36c18.76,0,36.77,3.21,52.58,9.61,23.13,9.35,55.49,27.52,78.33,61a149.9,149.9,0,0,1,25.12,69c2.27,20.61.78,42.94-4.42,66.36-3.13,14.1,3.8,27.58,8.21,34.36,8.22,12.64,16.41,19.17,23.08,22.51a73.83,73.83,0,0,1-8.72-20.71c-3.2-12.88-1.63-25.65.21-31.09,24.2-71.64,8.75-140.92-42.38-190.08-50-48.05-107-56.48-146.09-55.09-43.42,1.55-82.2,15.88-103.94,30.52l32.25,26.17a178.34,178.34,0,0,1,85.77-22.5Z" transform="translate(-2814.08 -2736.09)"/><rect class="g" x="155.22" y="246.43" width="10" height="38.84" rx="5"/><path class="h" d="M3090.63,3088.7v-53.11c4.79,1.75,9.1,3.12,12.11,3.95l17.75,4.95-12.81-13.24c-9.33-9.65-11.58-17-8.29-27,40.79-124.18-38.42-171.4-74.36-185.94-23.44-9.47-53.54-10-82.59-1.3s-53.58,25.26-69.48,47l-43.49-22.44v160.73c-6.09,14.41-10.62,31.59-13.48,51.09l-1.29,8.84,36.93-15.79v-10.88L2827.34,3046c2.79-15.4,6.72-29,11.72-40.66,11.14-25.9,27.84-42.15,49.62-48.31,7.3-2.06,22.43-1.83,31.74,5.21,4.95,3.74,7.35,8.76,7.35,15.34,0,19.3-35.34,38.92-55.09,38.92h-4.88l-4.66,185.48-15.78,13.49V3056.89l-10,4.28v175.95l99.42-85v43.69a16.12,16.12,0,1,0,10,0v-52.24l24.93-21.32v38.21a18.75,18.75,0,1,0,10,0v-46.76l14.82-12.67v-57a7.33,7.33,0,0,1,3.85-6.45l8-4.8V3228.7a18.74,18.74,0,1,0,10,0V3026.77l24.29-14.6v123.46a16.12,16.12,0,1,0,10,0V3013.58a113.25,113.25,0,0,0,16.05,11.88,104.72,104.72,0,0,0,11.92,6.11v57.13a18.74,18.74,0,1,0,10,0Zm-142.89,121a6.13,6.13,0,1,1-4.56-4.56A6.07,6.07,0,0,1,2947.74,3209.72Zm37.72-31a8.84,8.84,0,0,1-8.44,8.52,8.74,8.74,0,1,1,8.44-8.52Zm36.53,66.56a8.75,8.75,0,1,1-7.14-7.14A8.76,8.76,0,0,1,3022,3245.28Zm31.79-94.33a6.12,6.12,0,1,1-6.12-6.12A6.13,6.13,0,0,1,3053.78,3151Zm20.15-134a103.48,103.48,0,0,1-16.24-12.25,21.22,21.22,0,0,1-5.13-9.42,5,5,0,0,0-9.8,0c-.37,1.82-1.67,6.36-4.13,7.69l-17.56,10.55a1.78,1.78,0,0,1-2.7-1.53v-3.6a5,5,0,0,0-5.77-4.94,5.33,5.33,0,0,0-4.23,5.13V3015a10.75,10.75,0,0,1-5.21,9.21l-7.65,4.59a17.33,17.33,0,0,0-9,15.19v52.39l-113.17,96.77,4.2-167c24.66-2.66,60.21-24.25,60.21-48.64,0-9.65-3.91-17.72-11.31-23.31-12.84-9.71-31.66-9.36-40.5-6.86-.63.18-1.25.36-1.87.56-.34.1-.68.2-1,.32l-1.53.51-.28.1c-.72.24-1.43.51-2.14.78l-1.86.74c-.68.28-1.34.57-2,.87l-1,.47c-1.22.57-2.43,1.18-3.62,1.81l-1.38.75-.19.11q-.75.42-1.5.87l0,0-1.53.94a72.6,72.6,0,0,0-6.29,4.41c-.62.47-1.22,1-1.82,1.46-.35.27-.69.56-1,.85-.54.45-1.07.92-1.59,1.4a5.31,5.31,0,0,0-.44.4c-.43.38-.86.78-1.28,1.19q-1,.9-1.89,1.86l-.75.77c-.3.31-.6.62-.89.94s-.76.82-1.13,1.24-.74.83-1.11,1.26c-.87,1-1.72,2-2.56,3.1-.3.38-.6.76-.89,1.15s-.76,1-1.13,1.49-.57.77-.85,1.17q-.89,1.23-1.74,2.52c-.23.34-.45.68-.67,1s-.3.45-.45.68V2858l149.72,76.72a39.47,39.47,0,0,0,37.06,52.81,39.64,39.64,0,0,0,12.18-1.93,39.44,39.44,0,1,0-44.68-59.79L2882,2868.65c33.31-44.21,99-57.34,139.31-41,41.41,16.74,105.4,61.56,68.61,173.54-2.84,8.65-2.61,16.27,1,23.82A110.25,110.25,0,0,1,3073.93,3016.92Zm-73.84-82.25a29.25,29.25,0,0,1,17.15-14.61,29.62,29.62,0,0,1,9.09-1.44,29.47,29.47,0,1,1-26.24,16.05Zm94.16,173.57a8.75,8.75,0,1,1-10.1-10.1A8.76,8.76,0,0,1,3094.25,3108.24Z" transform="translate(-2814.08 -2736.09)"/><path class="i" d="M2957.9,3086.35a11.67,11.67,0,1,1-16.67-10.53v-29.31a11.66,11.66,0,1,1,10,0v29.29A11.69,11.69,0,0,1,2957.9,3086.35Z" transform="translate(-2814.08 -2736.09)"/><path class="j" d="M2926.58,3119.43a11.66,11.66,0,1,1-16.66-10.53v-42.64a11.66,11.66,0,1,1,10,0v42.64A11.66,11.66,0,0,1,2926.58,3119.43Z" transform="translate(-2814.08 -2736.09)"/><path class="k" d="M3026.29,2958.86a10.79,10.79,0,1,1,10.79-10.79A10.8,10.8,0,0,1,3026.29,2958.86Z" transform="translate(-2814.08 -2736.09)"/></svg>